<svg  xmlns="http://www.w3.org/2000/svg" viewBox="0 0 15.23 19.15">
  <path fill="white" d="M13.9,12.48c0,.51-.17,.97-.47,1.31-.37,.4-1.16,.87-2.35,1.11l.48-4.62h1.41c.52,0,.94,.42,.94,.94v1.26Zm-6.12,5.35H3.9c-.95,0-1.75-.74-1.83-1.69l-.68-7.92H10.43l-.74,7.17-.02,.23h0s-.06,.55-.06,.55c-.09,.95-.88,1.66-1.83,1.66m5.19-8.88h-1.28s.14-1.33,.14-1.33c.02-.19-.04-.37-.17-.51-.13-.14-.31-.22-.49-.22H.67c-.19,0-.36,.08-.49,.22C.05,7.23-.01,7.42,0,7.6l.74,8.64c.13,1.63,1.52,2.91,3.16,2.91h3.88c1.64,0,3-1.23,3.15-2.86v-.02c2.12-.33,3.13-1.21,3.48-1.59,.53-.58,.82-1.36,.82-2.2v-1.26c0-1.25-1.02-2.27-2.27-2.27"/>
  <path fill="white" d="M7.48,5.26c-1.46-2.25,1.51-2.71,1.72-4.29,1.22,2.15-1.47,2.73-1.72,4.29"/>
  <path fill="white" d="M4.34,5.25C2.99,2.59,6.35,1.99,6.52,0c1.35,2.67-2,3.26-2.18,5.25"/>
</svg>