<?xml version="1.0" encoding="UTF-8"?>
<svg xmlns="http://www.w3.org/2000/svg" xmlns:xlink="http://www.w3.org/1999/xlink" viewBox="0 0 360 360">
  <defs>
    <style>
      .cls-1 {
        clip-path: url(#clippath);
      }

      .cls-2, .cls-3 {
        fill: #1d1d1b;
        mix-blend-mode: multiply;
        opacity: .15;
      }

      .cls-3, .cls-4 {
        stroke-width: 0px;
      }

      .cls-5 {
        isolation: isolate;
      }

      .cls-4 {
        fill: #fff;
      }
    </style>
    <clipPath id="clippath">
      <rect class="cls-3" y="-379.18" width="360" height="360"/>
    </clipPath>
  </defs>
  <g class="cls-5">
    <g id="Artwork_MW" data-name="Artwork MW">
      <g>
        <rect class="cls-2" y="-379.18" width="360" height="360"/>
        <g class="cls-1">
          <image width="5760" height="3840" transform="translate(-491.73 -385.44) scale(.15)" xlink:href="../huisstijl middelen mockups/marjan-blan--Vc-ok8CeBU-unsplash.jpg"/>
        </g>
      </g>
      <g>
        <polygon class="cls-4" points="152.31 177.45 187.1 129.56 159.7 122.48 159.7 122.48 136.03 155.05 152.31 177.45"/>
        <polygon class="cls-4" points="278.99 226.07 291.66 122.88 264.25 129.97 256.29 194.83 278.99 226.07"/>
        <polygon class="cls-4" points="202.89 233.56 241.81 180 209.25 180 198.18 195.24 202.89 233.56"/>
        <polygon class="cls-4" points="108.95 122.88 81.55 129.97 68.34 237.52 95.75 230.44 108.95 122.88"/>
        <polygon class="cls-4" points="243.66 182.55 227.38 204.95 251.05 237.52 278.45 230.44 243.66 182.55"/>
        <polygon class="cls-4" points="111.54 126.44 106.83 164.76 117.9 180 150.45 180 111.54 126.44"/>
        <polygon class="cls-4" points="187.63 133.93 164.94 165.17 172.9 230.03 200.3 237.12 187.63 133.93"/>
      </g>
    </g>
  </g>
</svg>